PathFileType  4	(X/Y/Z) C:\Users\antoi\Documents\MyRepositories\mobilecap\ResultsAnalysis
DataRate	CameraRate	NumFrames	NumMarkers	Units	OrigDataRate	OrigDataStartFrame	OrigNumFrames
100.0	100.0	4	51	mm	100.0	127	253
Frame#	Time	r_knee			r_shank_antsup			r_ankle			r_calc			r_5meta			r_toe			L_knee			L_shank_antsup			L_ankle			L_calc			L_5meta			L_toe			r_sh2			r_sh3			r_sh4			L_sh2			L_sh3			r_thigh1			r_thigh2			r_thigh3			r_thigh4			r_thigh5			L_thigh1			L_thigh2			L_thigh3			L_thigh4			r.ASIS			r.PSIS			L.ASIS			L.PSIS			C7			R_Shoulder			L_Shoulder			R_Sternum			L_Sternum			R_humerus			R_elbow_med			R_elbow_lat			R_forearm			R_wrist_radius			R_wrist_ulna			L_humerus			L_elbow_med			L_elbow_lat			L_forearm			L_wrist_radius			L_wrist_ulna			R_HJC			L_HJC			R_HJC_reg			L_HJC_reg			
		X1	Y1	Z1	X2	Y2	Z2	X3	Y3	Z3	X4	Y4	Z4	X5	Y5	Z5	X6	Y6	Z6	X7	Y7	Z7	X8	Y8	Z8	X9	Y9	Z9	X10	Y10	Z10	X11	Y11	Z11	X12	Y12	Z12	X13	Y13	Z13	X14	Y14	Z14	X15	Y15	Z15	X16	Y16	Z16	X17	Y17	Z17	X18	Y18	Z18	X19	Y19	Z19	X20	Y20	Z20	X21	Y21	Z21	X22	Y22	Z22	X23	Y23	Z23	X24	Y24	Z24	X25	Y25	Z25	X26	Y26	Z26	X27	Y27	Z27	X28	Y28	Z28	X29	Y29	Z29	X30	Y30	Z30	X31	Y31	Z31	X32	Y32	Z32	X33	Y33	Z33	X34	Y34	Z34	X35	Y35	Z35	X36	Y36	Z36	X37	Y37	Z37	X38	Y38	Z38	X39	Y39	Z39	X40	Y40	Z40	X41	Y41	Z41	X42	Y42	Z42	X43	Y43	Z43	X44	Y44	Z44	X45	Y45	Z45	X46	Y46	Z46	X47	Y47	Z47	X48	Y48	Z48	X49	Y49	Z49	X50	Y50	Z50	X51	Y51	Z51	

127	1.26000000	-378.08470	552.41713	-428.98317	-361.21865	481.45864	-401.77636	-359.79387	167.54851	-425.44733	-414.78007	114.80978	-467.43135	-245.82533	139.86550	-403.97990	-212.69497	179.57779	-454.70346	-395.78770	543.57391	-782.55704	-357.89622	481.74694	-793.79271	-378.41249	165.41251	-789.71831	-439.47705	115.52995	-741.58318	-277.20129	125.70898	-809.22529	-234.29599	166.51829	-762.42208	-358.56976	368.58501	-392.39966	-433.82132	477.11102	-419.22173	-437.40871	361.16607	-414.52831	-446.82590	487.90843	-805.20421	-439.59750	366.35235	-815.44952	-448.39937	857.49135	-460.67679	-392.47893	761.25446	-444.70255	-424.88852	723.60819	-398.91958	-533.99271	819.78071	-394.95698	-480.59125	715.10904	-394.59819	-469.43712	824.30398	-780.00546	-404.13342	702.06601	-787.07005	-573.66917	771.32684	-785.88279	-499.27508	649.92053	-790.21878	-484.87317	961.23379	-477.74481	-659.96160	1004.46978	-540.37890	-495.70121	951.00242	-723.02396	-666.95113	999.12780	-646.32354	-408.84766	1415.69421	-620.81397	-378.29440	1375.32387	-491.97608	-371.89540	1367.90831	-752.46125	-322.14211	1300.44167	-597.97884	-323.31697	1298.74185	-642.36515	-434.43369	1282.26146	-289.18447	-505.77872	1175.10896	-251.94927	-468.10672	1242.14063	-216.99166	-377.04822	1221.64157	-283.47737	-297.02993	1188.00734	-356.93945	-278.43276	1167.90822	-321.69793	-351.44169	1291.90834	-850.73551	-438.60414	1115.15331	-970.92185	-400.93697	1162.21663	-1012.12359	-312.91658	1149.91243	-939.71379	-242.10608	1112.19326	-848.20752	-225.45260	1091.96067	-875.20027	-560.34602	896.14089	-494.42676	-565.69193	890.42224	-694.56619	-557.54913	893.08267	-504.07216	-568.21216	884.93181	-665.69840	
128	1.27000000	-361.28144	533.06966	-428.95368	-344.31877	461.86960	-401.77299	-346.10010	147.82534	-424.94637	-401.48234	93.72046	-465.24455	-231.45347	120.93840	-405.14706	-199.76321	160.85921	-456.49000	-377.49734	524.69414	-784.44352	-339.52147	462.26074	-795.77120	-361.84609	145.95514	-789.33777	-422.50658	94.65427	-741.71568	-259.91485	106.76588	-807.41223	-217.84806	148.22176	-760.59517	-342.66260	348.96039	-392.05084	-417.16977	458.28733	-418.42702	-421.78723	342.32357	-413.42531	-428.51423	468.63934	-806.73776	-421.75781	347.04421	-816.36894	-439.16460	837.17786	-459.32694	-380.03855	742.28555	-443.53951	-411.54435	703.71157	-397.89775	-523.56127	796.50646	-394.52912	-466.99582	693.56280	-394.02034	-459.79217	802.92330	-780.36305	-389.99576	683.09143	-788.68469	-562.21331	746.18607	-785.91368	-483.46158	627.60036	-790.88304	-476.98428	936.48827	-477.73934	-652.32107	979.46985	-540.59950	-487.70798	925.80534	-723.09468	-659.27711	973.61401	-646.47746	-396.83909	1388.96663	-621.38129	-366.51177	1347.82729	-493.62084	-360.30943	1340.85435	-752.67013	-310.27313	1273.31741	-598.92943	-311.69662	1271.67448	-643.29181	-422.81645	1255.66552	-290.25626	-493.18847	1146.98542	-253.19213	-456.46614	1214.86011	-217.93840	-365.58002	1195.74039	-284.49434	-284.60848	1163.07318	-357.72905	-265.83463	1143.50634	-322.39681	-341.32208	1265.42015	-850.70820	-429.38190	1088.10383	-970.33443	-392.35163	1134.84053	-1012.11285	-303.96526	1124.71212	-940.63832	-231.79943	1089.32289	-848.48060	-214.59783	1067.88770	-873.61608	-552.41267	871.28548	-494.34905	-557.67838	865.11597	-694.47734	-549.67647	868.55578	-503.78481	-560.29709	859.61723	-665.43278	
129	1.28000000	-343.97318	513.04499	-429.59130	-326.62071	441.79411	-402.18845	-332.05602	126.63865	-422.71517	-387.23665	70.83363	-461.90472	-216.44177	101.03702	-405.47850	-186.86142	141.91036	-457.62415	-359.07993	505.01951	-785.55955	-320.98368	441.89978	-796.51139	-345.31526	124.29609	-789.30957	-405.84041	72.29589	-742.97795	-242.02474	86.66250	-806.08435	-202.12044	128.72751	-757.98687	-325.77429	328.99651	-391.35970	-399.82056	438.94709	-417.18706	-405.52312	322.94142	-410.95702	-409.81092	449.12849	-808.63041	-404.08977	327.38147	-818.00997	-429.57627	815.76946	-458.88866	-368.13097	721.79245	-443.43285	-398.11915	682.42937	-397.25831	-512.81907	772.02362	-394.13403	-453.42559	670.84496	-393.51798	-449.55683	780.89771	-780.07715	-375.88035	663.64585	-789.74629	-550.18703	720.83463	-785.37793	-467.57776	605.00281	-791.51313	-468.74416	910.95019	-477.57546	-644.27545	953.07222	-541.20582	-479.25973	899.59151	-723.53193	-651.18983	946.74269	-646.87744	-385.26348	1361.50102	-622.07072	-354.72317	1319.68126	-494.83422	-349.12680	1312.62300	-753.02188	-298.87304	1245.48759	-600.21735	-300.60230	1243.67455	-644.20840	-410.46614	1226.67423	-291.31979	-478.89221	1116.32056	-254.34974	-443.56013	1185.04871	-218.86508	-352.54598	1167.80753	-285.59296	-270.43688	1136.77605	-358.31374	-251.40012	1117.61981	-322.97237	-330.95489	1237.37304	-850.49702	-418.48516	1058.97103	-969.34810	-382.30433	1105.51133	-1011.94929	-293.41477	1098.07138	-941.34534	-219.76572	1065.87994	-848.70341	-202.29455	1043.23337	-872.23323	-543.93224	845.39742	-494.42145	-548.97207	838.64199	-694.53590	-541.18616	842.72578	-503.44408	-551.78677	833.02582	-665.45810	
130	1.29000000	-328.48269	489.85364	-430.31427	-309.86212	419.03968	-402.14574	-315.70031	103.51560	-420.23483	-372.22080	53.41842	-459.68032	-201.27344	77.08785	-404.56142	-171.66187	118.16454	-456.74655	-342.05828	482.41495	-785.74400	-303.14052	418.99106	-796.34461	-327.87134	101.62762	-788.82051	-390.33619	56.03835	-742.53145	-225.76259	64.05805	-804.55041	-186.17601	105.19334	-755.23087	-308.86709	306.26141	-390.83512	-383.54433	416.13978	-415.16418	-389.52905	300.29592	-407.20531	-391.63094	427.08707	-810.61752	-386.55162	305.29815	-821.08358	-419.71960	791.71009	-459.55793	-357.34292	698.38804	-444.60614	-385.65543	658.72985	-397.60891	-501.87846	746.22722	-393.59262	-440.74831	646.15614	-393.18491	-438.95308	757.35952	-778.96440	-362.91170	641.69023	-790.19466	-538.00495	695.25438	-785.43075	-453.16890	580.80462	-792.38725	-459.83538	884.31874	-477.25608	-635.97554	925.16646	-541.90710	-470.24562	872.31199	-724.19763	-642.80195	918.49780	-647.38684	-374.30030	1333.50055	-622.56574	-342.83617	1291.08667	-495.33595	-338.45476	1283.44280	-753.52519	-288.24084	1216.89986	-601.75421	-290.03386	1215.01521	-644.91201	-397.23428	1195.37032	-292.35204	-462.81867	1083.62780	-255.53320	-429.38341	1152.95931	-219.83718	-337.74664	1138.09808	-286.46943	-254.55598	1109.26693	-358.64099	-235.06087	1090.52542	-323.34535	-320.22980	1207.86458	-850.41355	-405.82302	1027.88156	-968.01822	-370.71177	1074.52576	-1011.53251	-281.14605	1070.22643	-941.80810	-206.15707	1041.82360	-849.15164	-188.85487	1018.28781	-871.66507	-534.82103	818.25353	-494.59196	-539.60748	810.97260	-694.69425	-532.00048	815.38852	-503.08679	-542.52492	805.09521	-665.74161	
